<?xml version="1.0" encoding="UTF-8" standalone="no"?>
<svg
   height="800"
   viewBox="0 0 799.99999 800.00075"
   width="800"
   version="1.1"
   id="svg52"
   sodipodi:docname="Book8Colour3.svg"
   inkscape:version="1.1.2 (0a00cf5339, 2022-02-04)"
   xmlns:inkscape="http://www.inkscape.org/namespaces/inkscape"
   xmlns:sodipodi="http://sodipodi.sourceforge.net/DTD/sodipodi-0.dtd"
   xmlns:xlink="http://www.w3.org/1999/xlink"
   xmlns="http://www.w3.org/2000/svg"
   xmlns:svg="http://www.w3.org/2000/svg">
  <sodipodi:namedview
     id="namedview54"
     pagecolor="#ffffff"
     bordercolor="#666666"
     borderopacity="1.0"
     inkscape:pageshadow="2"
     inkscape:pageopacity="0.0"
     inkscape:pagecheckerboard="0"
     showgrid="false"
     inkscape:lockguides="true"
     inkscape:snap-bbox="true"
     inkscape:zoom="0.46061279"
     inkscape:cx="233.38475"
     inkscape:cy="559.03789"
     inkscape:window-width="1850"
     inkscape:window-height="1016"
     inkscape:window-x="0"
     inkscape:window-y="0"
     inkscape:window-maximized="1"
     inkscape:current-layer="svg52">
    <sodipodi:guide
       position="0,800.00037"
       orientation="0,800"
       id="guide975"
       inkscape:locked="true" />
    <sodipodi:guide
       position="800.00037,800.00037"
       orientation="800,0"
       id="guide977"
       inkscape:locked="true" />
    <sodipodi:guide
       position="800.00037,0"
       orientation="0,-800"
       id="guide979"
       inkscape:locked="true" />
    <sodipodi:guide
       position="0,0"
       orientation="-800,0"
       id="guide981"
       inkscape:locked="true" />
  </sodipodi:namedview>
  <defs
     id="defs31">
    <linearGradient
       id="a"
       x2="226.42999"
       gradientUnits="userSpaceOnUse"
       x1="194.28999">
      <stop
         stop-color="#fff"
         offset="0"
         id="stop2" />
      <stop
         stop-color="#fff"
         stop-opacity="0"
         offset="1"
         id="stop4" />
    </linearGradient>
    <linearGradient
       id="c"
       y2="1719"
       gradientUnits="userSpaceOnUse"
       y1="1726.7"
       gradientTransform="matrix(1.9585,0,0,0.51059,0,280)"
       x2="116.15"
       x1="121.74">
      <stop
         stop-color="#ebebe2"
         offset="0"
         id="stop7" />
      <stop
         stop-color="#bcbc8e"
         offset="1"
         id="stop9" />
    </linearGradient>
    <linearGradient
       id="b"
       y2="776.56"
       gradientUnits="userSpaceOnUse"
       y1="794.37"
       gradientTransform="matrix(0.74743,0,0,1.3379,0.25,132)"
       x2="286.70999"
       x1="277.48999">
      <stop
         stop-color="#fdf064"
         offset="0"
         id="stop12" />
      <stop
         stop-color="#c68200"
         offset="1"
         id="stop14" />
    </linearGradient>
    <linearGradient
       id="s"
       y2="1776.3"
       xlink:href="#a"
       y1="1700.8"
       gradientTransform="matrix(13.288,0,0,5.0944,-1573.8,-8691.5)"
       x2="164.78999"
       x1="143.16" />
    <linearGradient
       id="r"
       xlink:href="#b"
       y1="1225.1"
       gradientTransform="matrix(8.2276,0,0,8.2276,-1573.8,-9843.4)"
       x2="0"
       y2="1200.7" />
    <linearGradient
       id="q"
       y2="1634.5"
       xlink:href="#c"
       y1="1696.2"
       gradientTransform="matrix(1.5147,0,0,0.66019,0,140)"
       x2="157.33"
       x1="140.25999" />
    <linearGradient
       id="p"
       y2="1669.3"
       xlink:href="#a"
       y1="1674.5"
       gradientTransform="matrix(12.462,0,0,5.4318,-1573.8,-8691.5)"
       x2="147.69"
       x1="140.17999" />
    <linearGradient
       id="o"
       y2="985.92999"
       xlink:href="#b"
       spreadMethod="reflect"
       y1="1000.9"
       gradientTransform="matrix(7.4647,0,0,9.0685,-1573.8,-8691.5)"
       x2="226.88"
       x1="223.66" />
    <linearGradient
       id="n"
       y2="1247"
       xlink:href="#a"
       y1="1225.9"
       gradientTransform="matrix(8.2276,0,0,8.2276,-1573.8,-9843.4)"
       x2="204.62"
       x1="204.58" />
    <linearGradient
       id="m"
       y2="1493.9"
       xlink:href="#a"
       y1="1437.3"
       gradientTransform="matrix(11.208,0,0,6.0398,-1573.8,-8691.5)"
       x2="182.97"
       x1="196.64999" />
    <linearGradient
       id="e"
       y2="1667"
       xlink:href="#a"
       x2="167.52"
       gradientTransform="matrix(12.462,0,0,5.4318,-1573.8,-8691.5)"
       y1="1674.5"
       x1="175.50999" />
    <linearGradient
       id="d"
       xlink:href="#c"
       gradientTransform="matrix(8.2276,0,0,8.2276,-1573.8,-9843.4)"
       x2="286.48999"
       x1="199.82001" />
    <linearGradient
       id="f"
       y2="1082.9"
       spreadMethod="reflect"
       gradientUnits="userSpaceOnUse"
       x2="211.85001"
       gradientTransform="matrix(9.6757,0,0,6.9965,-1573.8,-7539.6)"
       y1="1137.6"
       x1="205.99001">
      <stop
         stop-color="#895356"
         offset="0"
         id="stop26" />
      <stop
         stop-color="#4c1f1b"
         offset="1"
         id="stop28" />
    </linearGradient>
  </defs>
  <g
     id="g1047"
     transform="translate(0,132.88138)">
    <path
       d="M 67.06,179.5 504.36,4.58 795.89,179.5 V 296.11 L 358.59,529.33 67.06,296.11 Z"
       stroke="#000000"
       stroke-width="8.2276"
       fill="url(#f)"
       id="path33"
       style="fill:url(#f)" />
    <path
       id="g"
       d="M 790.18,191.01 358.24,411.4 73.21,201.3 l -2.942,73.46 289.44,230.67 427.83,-226.26 2.6445,-88.151 z"
       stroke-opacity="0.19608"
       stroke="#000000"
       stroke-width="16.455"
       fill="url(#d)"
       style="fill:url(#d)" />
    <path
       opacity="0.5"
       d="M 101.78,184.43 503.21,18.62 767.91,181.52 C 716.52,207.7 640.04,244.311 593.38,251.333 384.11,282.826 450.84,143.703 101.77,184.429 Z"
       fill="url(#s)"
       id="path36"
       style="fill:url(#s)" />
    <path
       d="M 501.64,36.336 374.11,89.815 606.54,231.735 729.96,178.255 501.64,36.335 Z"
       stroke-opacity="0.4"
       stroke="#000000"
       stroke-width="8.2276"
       fill="url(#r)"
       id="path38"
       style="fill:url(#r)" />
    <use
       stroke-opacity="0.19608"
       xlink:href="#g"
       height="274.26697"
       width="308.90109"
       stroke="#000000"
       y="0"
       x="0"
       fill="url(#q)"
       id="use40"
       style="fill:url(#q)" />
    <path
       d="m 790.18,191.01 -431.95,220.38 1.4693,94.025 427.84,-226.26 2.6445,-88.151 z"
       fill="url(#e)"
       id="path42"
       style="fill:url(#e)" />
    <path
       d="m 358.24,411.51 -285.03,-210.1 -2.942,73.46 289.44,230.67 -1.47,-94.02 z"
       fill="url(#p)"
       id="path44"
       style="fill:url(#p)" />
    <path
       stroke-linejoin="round"
       d="m 100.38,253.54 82.86,68.498 c -34.75,11.57 -40.71,138.32 -116.61,145.77 12.911,-43.37 13.478,-68.23 14.045,-101.32 -20.003,12.16 -52.346,22.27 -72.348,13.86 55.369,-40.21 61.374,-119.5 92.063,-126.8 z"
       stroke="#000000"
       stroke-width="8.228"
       fill="url(#o)"
       id="path46"
       style="fill:url(#o)" />
    <path
       d="m 92.237,273.29 c -7.758,5.255 -17.159,36.376 -28.31,58.678 26.18,-25.696 35.785,58.844 61.087,56.723 14.989,-1.2564 24.024,-35.639 31.645,-56.017 7.0566,-18.868 -52.348,-67.562 -64.422,-59.384 z"
       fill="url(#n)"
       id="path48"
       style="fill:url(#n)" />
    <path
       d="M 500.57,47.855 397.73,90.021 c 98.386,-30.168 154.3,48.895 210.83,94.617 39.145,31.662 122.04,-7.8845 64.792,-33.939 L 500.572,47.859 Z"
       fill="url(#m)"
       id="path50"
       style="fill:url(#m)" />
  </g>
  <rect
     style="fill:#0019ff;stroke:#000000;stroke-width:1.11907;stroke-linecap:round;stroke-linejoin:round;stroke-miterlimit:3.97079;paint-order:markers fill stroke"
     id="rect893"
     width="491.72775"
     height="800"
     x="-627.47595"
     y="-1.805347e-10"
     ry="0" />
</svg>
