<?xml version="1.0" encoding="UTF-8" standalone="no"?>
<svg
   viewBox="0 0 256 255.99999"
   version="1.1"
   id="svg5"
   sodipodi:docname="plin.svg"
   width="256"
   height="256"
   inkscape:version="1.4 (1:1.4+202410161351+e7c3feb100)"
   xmlns:inkscape="http://www.inkscape.org/namespaces/inkscape"
   xmlns:sodipodi="http://sodipodi.sourceforge.net/DTD/sodipodi-0.dtd"
   xmlns="http://www.w3.org/2000/svg"
   xmlns:svg="http://www.w3.org/2000/svg">
  <sodipodi:namedview
     id="namedview5"
     pagecolor="#ffffff"
     bordercolor="#666666"
     borderopacity="1.0"
     inkscape:showpageshadow="2"
     inkscape:pageopacity="0.0"
     inkscape:pagecheckerboard="0"
     inkscape:deskcolor="#d1d1d1"
     inkscape:zoom="1.45697"
     inkscape:cx="190.80695"
     inkscape:cy="128.34856"
     inkscape:window-width="1920"
     inkscape:window-height="1016"
     inkscape:window-x="0"
     inkscape:window-y="0"
     inkscape:window-maximized="1"
     inkscape:current-layer="svg5" />
  <defs
     id="defs2">
    <radialGradient
       id="g"
       cx="621.64001"
       cy="3485.8101"
       r="0.5"
       gradientTransform="matrix(262.10424,0,0,262.10424,-162878.32,-913437.12)"
       gradientUnits="userSpaceOnUse">
      <stop
         offset="0"
         stop-color="#2d76ff"
         id="stop1" />
      <stop
         offset="1"
         stop-color="#00e2cd"
         id="stop2" />
    </radialGradient>
  </defs>
  <g
     id="g5"
     transform="matrix(1.1979966,0,0,1.1979966,-25.605796,-25.603178)">
    <path
       fill="url(#g)"
       d="M 125.06,36.74 C 74.54,38.48 35,80.85 36.74,131.37 c 0.29,8.53 1.75,16.74 4.2,24.5 0.06,0.18 0.12,0.36 0.17,0.54 a 58,58 0 0 1 2.62,15.39 c 0.25,7.27 -0.85,14.26 -3.07,20.75 -0.05,0.14 -0.1,0.27 -0.14,0.41 -0.67,2 -1,4.15 -0.92,6.38 0.17,4.79 2.17,9.08 5.31,12.22 3.14,3.14 7.43,5.14 12.23,5.31 2.23,0.08 4.38,-0.25 6.38,-0.92 0.14,-0.05 0.27,-0.09 0.41,-0.14 6.49,-2.23 13.49,-3.33 20.75,-3.09 5.36,0.18 10.52,1.08 15.4,2.61 0.18,0.06 0.36,0.11 0.54,0.17 7.76,2.45 15.98,3.9 24.5,4.19 50.52,1.71 92.87,-37.85 94.58,-88.37 0.89,-26.39 -9.47,-50.54 -26.77,-67.84 -16.61,-16.59 -39.52,-26.79 -64.65,-26.79 -1.07,0 -2.14,0.02 -3.21,0.05 z"
       id="path2"
       style="fill:url(#g)" />
    <path
       fill="#f478c4"
       d="m 145.83,99.98 c 0,3.18 -2.58,5.76 -5.75,5.76 -3.17,0 -5.76,-2.58 -5.76,-5.76 0,-3.18 2.58,-5.75 5.76,-5.75 3.18,0 5.75,2.58 5.75,5.75"
       id="path3" />
    <path
       fill="#ffffff"
       d="m 120.99,94.22 h -1.32 c -2.84,0 -5.13,2.3 -5.13,5.13 v 46.83 c 0,2.84 2.3,5.14 5.13,5.14 h 1.32 c 2.84,0 5.14,-2.3 5.14,-5.14 V 99.35 c 0,-2.84 -2.3,-5.13 -5.14,-5.13 M 88.5,107.89 c -5.8,0 -7.12,1.93 -11.48,1.93 -2.52,0 -3.91,-0.82 -7.21,-0.82 -1.95,0 -4.59,1.16 -4.59,5.06 v 22.41 l 0.05,27.04 a 4.95,4.95 0 0 0 4.96,4.95 h 1.56 a 4.96,4.96 0 0 0 4.96,-4.96 v -9.3 c 0,-3.2 2.14,-4.4 3.93,-4.4 1.27,0 3.96,1.08 6.9,1.08 15.5,0 20,-10.58 20,-20.77 0,-14.05 -6.41,-22.23 -19.07,-22.23 m -2.42,36.34 c -6.6,0 -10.22,-6.57 -10.22,-14.68 0,-8.11 3.92,-14.68 10.22,-14.68 6.3,0 10.22,6.57 10.22,14.68 0,8.11 -3.51,14.68 -10.22,14.68 m 54.65,-34.96 h -1.32 c -2.84,0 -5.14,2.3 -5.14,5.13 v 31.8 c 0,2.84 2.3,5.14 5.14,5.14 h 1.32 c 2.84,0 5.13,-2.3 5.13,-5.14 v -31.8 c 0,-2.84 -2.3,-5.13 -5.13,-5.13 m 49.88,9.75 c -0.22,-5.18 -3.04,-10.85 -12.48,-10.85 -4.58,0 -6.22,1.93 -11.11,1.93 -2.47,0 -3.22,-0.82 -7.11,-0.82 -3.06,0 -5.86,1.88 -5.86,5.2 v 32.03 c 0,2.66 2.16,4.82 4.82,4.82 h 1.95 c 2.67,0 4.83,-2.16 4.82,-4.83 v -23.75 c 0,-4.8 2.86,-7.66 6.81,-7.66 3.84,0 6.77,2.57 6.77,7.68 v 23.74 c 0,2.66 2.16,4.82 4.82,4.82 h 1.76 c 2.66,0 4.87,-2.16 4.87,-4.82 v -18.45 c 0,-3.02 0.06,-6.04 -0.06,-9.05"
       id="path4" />
  </g>
</svg>
