<?xml version="1.0" encoding="UTF-8" standalone="no"?>
<svg
   height="150"
   width="170"
   version="1.1"
   id="svg4"
   sodipodi:docname="win.svg"
   inkscape:export-filename="win.png"
   inkscape:export-xdpi="20.48"
   inkscape:export-ydpi="20.48"
   inkscape:version="1.4 (1:1.4+202410161351+e7c3feb100)"
   xmlns:inkscape="http://www.inkscape.org/namespaces/inkscape"
   xmlns:sodipodi="http://sodipodi.sourceforge.net/DTD/sodipodi-0.dtd"
   xmlns="http://www.w3.org/2000/svg"
   xmlns:svg="http://www.w3.org/2000/svg">
  <defs
     id="defs4" />
  <sodipodi:namedview
     id="namedview4"
     pagecolor="#ffffff"
     bordercolor="#666666"
     borderopacity="1.0"
     inkscape:showpageshadow="2"
     inkscape:pageopacity="0.0"
     inkscape:pagecheckerboard="0"
     inkscape:deskcolor="#d1d1d1"
     inkscape:zoom="5.3333333"
     inkscape:cx="84.9375"
     inkscape:cy="75"
     inkscape:window-width="1920"
     inkscape:window-height="1016"
     inkscape:window-x="0"
     inkscape:window-y="27"
     inkscape:window-maximized="1"
     inkscape:current-layer="svg4" />
  <path
     d="M170 20.7c-33 13.7-49 6-63.2-3.6L90.8 73.5c14.3 9.7 31.5 17.7 63.2 3.5l16.3-56.3z"
     fill="#00b4f1"
     id="path1" />
  <path
     d="M63 134.2c-14.3-9.6-30-17.6-63-3.9l16.2-56.6c33-13.6 49-5.9 63.3 3.8L63 134.2z"
     fill="#00b4f1"
     id="path2" />
  <path
     d="M82.2 67.3a53.9 53.9 0 0 0-31-11.3c-8.7-.1-19.1 2.4-32.2 7.8L35.2 7.4c33.1-13.7 49-6 63.3 3.7L82.2 67.3z"
     fill="#00b4f1"
     id="path3" />
  <path
     d="M88 83c14.4 9.6 30.3 17.3 63.3 3.6L135 142.8c-33 13.7-48.9 6-63.2-3.7L88.1 83z"
     fill="#00b4f1"
     id="path4" />
</svg>
